<?xml version="1.0" encoding="utf-8"?>
             <svg width="1500" height="800" style="overflow:visible " version="1.1" xmlns="http://www.w3.org/2000/svg"><g><circle cx="1312.5" cy="90" r="75" style="fill:rgb(0,0,0);"/><text x="1312.5" y="90" text-anchor="middle" font-size="14" style="fill:white">Ane Aramburu Zelaya</text></g><g><circle cx="1137.5" cy="90" r="75" style="fill:rgb(0,0,0);"/><text x="1137.5" y="90" text-anchor="middle" font-size="14" style="fill:white">Oskar Muñoz Aanda</text></g><g><circle cx="1225.0" cy="290" r="75" style="fill:rgb(0,0,0);"/><text x="1225.0" y="290" text-anchor="middle" font-size="14" style="fill:white">Alba Muñoz Aramburu</text></g><g><circle cx="962.5" cy="90" r="75" style="fill:rgb(0,0,0);"/><text x="962.5" y="90" text-anchor="middle" font-size="14" style="fill:white">Marga García Chacón</text></g><g><circle cx="787.5" cy="90" r="75" style="fill:rgb(0,0,0);"/><text x="787.5" y="90" text-anchor="middle" font-size="14" style="fill:white">Manuel Varela Varela</text></g><g><circle cx="875.0" cy="290" r="75" style="fill:rgb(0,0,0);"/><text x="875.0" y="290" text-anchor="middle" font-size="14" style="fill:white">Enrique Varela García</text></g><g><circle cx="1050.0" cy="490" r="75" style="fill:rgb(0,0,0);"/><text x="1050.0" y="490" text-anchor="middle" font-size="14" style="fill:white">Nora Varela Muñoz</text></g><g><circle cx="612.5" cy="90" r="75" style="fill:rgb(0,0,0);"/><text x="612.5" y="90" text-anchor="middle" font-size="14" style="fill:white">Cándida Codina Guerrero</text></g><g><circle cx="437.5" cy="90" r="75" style="fill:rgb(0,0,0);"/><text x="437.5" y="90" text-anchor="middle" font-size="14" style="fill:white">José Ramón Fuente Soto</text></g><g><circle cx="525.0" cy="290" r="75" style="fill:rgb(0,0,0);"/><text x="525.0" y="290" text-anchor="middle" font-size="14" style="fill:white">Azucena Fuente Codina</text></g><g><circle cx="262.5" cy="90" r="75" style="fill:rgb(0,0,0);"/><text x="262.5" y="90" text-anchor="middle" font-size="14" style="fill:white">Margarita Oliva Peña Ruiz</text></g><g><circle cx="87.5" cy="90" r="75" style="fill:rgb(0,0,0);"/><text x="87.5" y="90" text-anchor="middle" font-size="14" style="fill:white">Jesús Álvarez Rodenas</text></g><g><circle cx="175.0" cy="290" r="75" style="fill:rgb(0,0,0);"/><text x="175.0" y="290" text-anchor="middle" font-size="14" style="fill:white">Gustavo Álvarez Peña</text></g><g><circle cx="350.0" cy="490" r="75" style="fill:rgb(0,0,0);"/><text x="350.0" y="490" text-anchor="middle" font-size="14" style="fill:white">Pedro Álvarez Fuente</text></g><g><circle cx="700" cy="690" r="75" style="fill:rgb(0,0,0);"/><text x="700" y="690" text-anchor="middle" font-size="14" style="fill:white">Alejandro Álvarez Varela</text></g><line x1="700" y1="615" x2="350.0" y2="565" stroke="black"/><line x1="350.0" y1="415" x2="175.0" y2="365" stroke="black"/><line x1="175.0" y1="215" x2="87.5" y2="165" stroke="black"/><line x1="175.0" y1="215" x2="262.5" y2="165" stroke="black"/><line x1="350.0" y1="415" x2="525.0" y2="365" stroke="black"/><line x1="525.0" y1="215" x2="437.5" y2="165" stroke="black"/><line x1="525.0" y1="215" x2="612.5" y2="165" stroke="black"/><line x1="700" y1="615" x2="1050.0" y2="565" stroke="black"/><line x1="1050.0" y1="415" x2="875.0" y2="365" stroke="black"/><line x1="875.0" y1="215" x2="787.5" y2="165" stroke="black"/><line x1="875.0" y1="215" x2="962.5" y2="165" stroke="black"/><line x1="1050.0" y1="415" x2="1225.0" y2="365" stroke="black"/><line x1="1225.0" y1="215" x2="1137.5" y2="165" stroke="black"/><line x1="1225.0" y1="215" x2="1312.5" y2="165" stroke="black"/></svg>