<?xml version="1.0" encoding="utf-8"?>
             <svg width="2000" height="2000" style="overflow:visible " version="1.1" xmlns="http://www.w3.org/2000/svg"><g><circle cx="1412.5" cy="200" r="75" style="fill:rgb(0,0,0);"/><text x="1412.5" y="200" text-anchor="middle" font-size="14" style="fill:white">Ane Aramburu Zelaya</text></g><g><circle cx="1237.5" cy="200" r="75" style="fill:rgb(0,0,0);"/><text x="1237.5" y="200" text-anchor="middle" font-size="14" style="fill:white">Oskar Muñoz Aanda</text></g><g><circle cx="1325.0" cy="400" r="75" style="fill:rgb(0,0,0);"/><text x="1325.0" y="400" text-anchor="middle" font-size="14" style="fill:white">Alba Muñoz Aramburu</text></g><g><circle cx="1062.5" cy="200" r="75" style="fill:rgb(0,0,0);"/><text x="1062.5" y="200" text-anchor="middle" font-size="14" style="fill:white">Marga García Chacón</text></g><g><circle cx="887.5" cy="200" r="75" style="fill:rgb(0,0,0);"/><text x="887.5" y="200" text-anchor="middle" font-size="14" style="fill:white">Manuel Varela Varela</text></g><g><circle cx="975.0" cy="400" r="75" style="fill:rgb(0,0,0);"/><text x="975.0" y="400" text-anchor="middle" font-size="14" style="fill:white">Enrique Varela García</text></g><g><circle cx="1150.0" cy="600" r="75" style="fill:rgb(0,0,0);"/><text x="1150.0" y="600" text-anchor="middle" font-size="14" style="fill:white">Nora Varela Muñoz</text></g><g><circle cx="712.5" cy="200" r="75" style="fill:rgb(0,0,0);"/><text x="712.5" y="200" text-anchor="middle" font-size="14" style="fill:white">Cándida Codina Guerrero</text></g><g><circle cx="537.5" cy="200" r="75" style="fill:rgb(0,0,0);"/><text x="537.5" y="200" text-anchor="middle" font-size="14" style="fill:white">José Ramón Fuente Soto</text></g><g><circle cx="625.0" cy="400" r="75" style="fill:rgb(0,0,0);"/><text x="625.0" y="400" text-anchor="middle" font-size="14" style="fill:white">Azucena Fuente Codina</text></g><g><circle cx="362.5" cy="200" r="75" style="fill:rgb(0,0,0);"/><text x="362.5" y="200" text-anchor="middle" font-size="14" style="fill:white">Margarita Oliva Peña Ruiz</text></g><g><circle cx="187.5" cy="200" r="75" style="fill:rgb(0,0,0);"/><text x="187.5" y="200" text-anchor="middle" font-size="14" style="fill:white">Jesús Álvarez Rodenas</text></g><g><circle cx="275.0" cy="400" r="75" style="fill:rgb(0,0,0);"/><text x="275.0" y="400" text-anchor="middle" font-size="14" style="fill:white">Gustavo Álvarez Peña</text></g><g><circle cx="450.0" cy="600" r="75" style="fill:rgb(0,0,0);"/><text x="450.0" y="600" text-anchor="middle" font-size="14" style="fill:white">Pedro Álvarez Fuente</text></g><g><circle cx="800" cy="800" r="75" style="fill:rgb(0,0,0);"/><text x="800" y="800" text-anchor="middle" font-size="14" style="fill:white">Alejandro Álvarez Varela</text></g><line x1="800" y1="725" x2="450.0" y2="675" stroke="black"/><line x1="450.0" y1="525" x2="275.0" y2="475" stroke="black"/><line x1="275.0" y1="325" x2="187.5" y2="275" stroke="black"/><line x1="275.0" y1="325" x2="362.5" y2="275" stroke="black"/><line x1="450.0" y1="525" x2="625.0" y2="475" stroke="black"/><line x1="625.0" y1="325" x2="537.5" y2="275" stroke="black"/><line x1="625.0" y1="325" x2="712.5" y2="275" stroke="black"/><line x1="800" y1="725" x2="1150.0" y2="675" stroke="black"/><line x1="1150.0" y1="525" x2="975.0" y2="475" stroke="black"/><line x1="975.0" y1="325" x2="887.5" y2="275" stroke="black"/><line x1="975.0" y1="325" x2="1062.5" y2="275" stroke="black"/><line x1="1150.0" y1="525" x2="1325.0" y2="475" stroke="black"/><line x1="1325.0" y1="325" x2="1237.5" y2="275" stroke="black"/><line x1="1325.0" y1="325" x2="1412.5" y2="275" stroke="black"/></svg>